<svg width="23" height="22" viewBox="0 0 23 22" fill="none" xmlns="http://www.w3.org/2000/svg">
<path d="M20.2645 11.5627L11.4384 20.3888L2.75849 11.7089L2.78845 11.679L2.41935 11.3256C2.38622 11.2939 2.35334 11.2617 2.32074 11.2291C-0.110283 8.79806 -0.107045 4.85068 2.33127 2.41237C4.75656 -0.012917 8.67491 -0.0290723 11.1089 2.36309L11.4647 2.7128L11.8152 2.35774L11.8446 2.32818C11.8446 2.32818 11.8446 2.32817 11.8446 2.32817C14.2822 -0.109394 18.2342 -0.109389 20.6718 2.32818C23.1094 4.76576 23.1094 8.71785 20.6718 11.1554C20.6555 11.1717 20.6392 11.1879 20.6227 11.204L20.2604 11.5586L20.2645 11.5627Z" fill="#9356DC" />
</svg>
